<svg width="162" height="50" viewBox="0 0 162 50" fill="none" xmlns="http://www.w3.org/2000/svg">
<path d="M5 5.82759H10.3517V44.4483H5V5.82759ZM18.5172 21.8276C17.2299 21.8276 16.0713 22.0483 15.0414 22.4897C14.0483 22.931 13.2023 23.5563 12.5034 24.3655C11.8046 25.1747 11.2713 26.131 10.9034 27.2345C10.5356 28.3379 10.3517 29.5333 10.3517 30.8207V44.4483H5V30.931C5 28.8345 5.31264 26.9034 5.93793 25.1379C6.56322 23.3356 7.44598 21.7908 8.58621 20.5034C9.76322 19.1793 11.1793 18.1494 12.8345 17.4138C14.5264 16.6782 16.4207 16.3103 18.5172 16.3103C20.6138 16.3103 22.4345 16.6782 23.9793 17.4138C25.5609 18.1494 26.9034 19.1793 28.0069 20.5034C29.1103 21.7908 29.9931 23.3356 30.6552 25.1379C31.3172 26.9034 31.777 28.8345 32.0345 30.931L33.6897 44.4483H28.2828L26.5724 30.8207C26.4253 29.5333 26.1494 28.3379 25.7448 27.2345C25.377 26.131 24.8621 25.1931 24.2 24.4207C23.5747 23.6115 22.7839 22.9862 21.8276 22.5448C20.908 22.0667 19.8046 21.8276 18.5172 21.8276Z" fill="#349989"/>
<path d="M38.7427 16.8621H44.0944V44.4483H38.7427V16.8621ZM38.1358 8.31034C38.1358 7.31724 38.43 6.52644 39.0185 5.93793C39.6438 5.31264 40.453 5 41.4461 5C42.4024 5 43.1749 5.31264 43.7634 5.93793C44.3887 6.52644 44.7013 7.31724 44.7013 8.31034C44.7013 9.30345 44.3887 10.1126 43.7634 10.7379C43.1749 11.3264 42.4024 11.6207 41.4461 11.6207C40.453 11.6207 39.6438 11.3264 39.0185 10.7379C38.43 10.1126 38.1358 9.30345 38.1358 8.31034Z" fill="#349989"/>
<path d="M61.4022 27.9517C63.8665 27.9517 65.7056 27.5655 66.9194 26.7931C68.17 26.0207 68.9424 24.5678 69.2366 22.4345L69.8987 16.8621H75.2504L74.5884 22.3241C74.2941 24.7885 73.7424 26.6828 72.9332 28.0069C72.1608 29.2943 71.0389 30.177 69.5677 30.6552C70.9286 31.0966 72.032 32.0345 72.878 33.469C73.724 34.9035 74.2941 36.7425 74.5884 38.9862L75.2504 44.4483H69.8987L69.2366 38.8759C68.9792 36.7057 68.2251 35.2345 66.9746 34.4621C65.724 33.6897 63.8665 33.3034 61.4022 33.3034H55.6642V44.4483H50.3125V5.82759H55.6642V27.9517H61.4022Z" fill="#349989"/>
<path d="M99.3194 24.8621C98.547 23.9057 97.5723 23.1701 96.3953 22.6552C95.255 22.1034 93.9861 21.8276 92.5884 21.8276C90.3079 21.8276 88.4137 22.4713 86.9056 23.7586C85.3976 25.046 84.4412 26.7379 84.0366 28.8345L99.3194 24.8621ZM78.5194 30.931C78.5194 28.8345 78.8504 26.9034 79.5125 25.1379C80.2113 23.3356 81.1677 21.7908 82.3815 20.5034C83.632 19.1793 85.1217 18.1494 86.8504 17.4138C88.5792 16.6782 90.4918 16.3103 92.5884 16.3103C94.3539 16.3103 95.9907 16.5862 97.4987 17.1379C99.0068 17.6529 100.349 18.3885 101.526 19.3448C102.703 20.2644 103.678 21.3862 104.45 22.7103C105.26 24.0345 105.848 25.4874 106.216 27.069V28.669L84.4228 34.131C85.0113 35.7862 86.0045 37.092 87.4022 38.0483C88.8366 39.0046 90.5654 39.4828 92.5884 39.4828C94.501 39.4828 96.1562 39.0046 97.5539 38.0483C98.9516 37.092 99.9631 35.823 100.588 34.2414H106.216C105.848 35.823 105.26 37.2759 104.45 38.6C103.678 39.9241 102.703 41.0644 101.526 42.0207C100.349 42.9402 99.0068 43.6759 97.4987 44.2276C95.9907 44.7425 94.3539 45 92.5884 45C90.4918 45 88.5792 44.6506 86.8504 43.9517C85.1217 43.2529 83.632 42.2966 82.3815 41.0828C81.1677 39.8322 80.2113 38.3425 79.5125 36.6138C78.8504 34.8851 78.5194 32.9908 78.5194 30.931Z" fill="#349989"/>
<path d="M124.903 21.8276C122.071 21.8276 119.791 22.6552 118.062 24.3103C116.37 25.9287 115.524 28.0989 115.524 30.8207V44.4483H110.172V30.931C110.172 28.8345 110.503 26.9034 111.166 25.1379C111.864 23.3356 112.821 21.7908 114.034 20.5034C115.285 19.1793 116.775 18.1494 118.503 17.4138C120.232 16.6782 122.145 16.3103 124.241 16.3103C125.823 16.3103 127.294 16.531 128.655 16.9724V22.3793C128.067 22.1954 127.441 22.0667 126.779 21.9931C126.154 21.8828 125.529 21.8276 124.903 21.8276Z" fill="#349989"/>
<path d="M145.427 45C141.013 45 137.556 44.0805 135.055 42.2414C132.59 40.3655 131.229 37.6989 130.972 34.2414H136.6C136.783 36.0437 137.593 37.3862 139.027 38.269C140.498 39.1149 142.76 39.5379 145.813 39.5379C148.167 39.5379 149.988 39.2805 151.275 38.7655C152.563 38.2138 153.206 37.4046 153.206 36.3379C153.206 34.2414 150.337 33.1747 144.6 33.1379C140.002 33.1012 136.581 32.4759 134.338 31.2621C132.094 30.0483 130.972 28.1356 130.972 25.5241C130.972 24.1264 131.285 22.8575 131.91 21.7172C132.572 20.577 133.473 19.6023 134.613 18.7931C135.79 17.9839 137.206 17.377 138.862 16.9724C140.517 16.531 142.356 16.3103 144.379 16.3103C148.682 16.3103 152.048 17.2483 154.475 19.1241C156.94 21 158.319 23.6483 158.613 27.069H152.931C152.747 25.3034 151.938 23.9977 150.503 23.1517C149.105 22.269 147.009 21.8276 144.213 21.8276C141.749 21.8276 139.818 22.1586 138.42 22.8207C137.023 23.446 136.324 24.3471 136.324 25.5241C136.324 26.554 136.949 27.2897 138.2 27.731C139.45 28.1356 141.565 28.3747 144.544 28.4483C149.547 28.5218 153.133 29.1471 155.303 30.3241C157.51 31.4644 158.613 33.3218 158.613 35.8966C158.613 38.8023 157.436 41.046 155.082 42.6276C152.728 44.2092 149.51 45 145.427 45Z" fill="#349989"/>
</svg>
