<svg width="390" height="586" viewBox="0 0 390 586" fill="none" xmlns="http://www.w3.org/2000/svg">
<mask id="path-1-inside-1_354_196" fill="white">
<path d="M-3.96802 220.071H38.8091V243.157C38.8091 248.782 34.2491 253.342 28.6241 253.342H-3.96802V220.071Z"/>
</mask>
<path d="M-3.96802 220.071H38.8091H-3.96802ZM44.2411 243.157C44.2411 251.782 37.2491 258.774 28.6241 258.774H-3.96802V247.91H28.6241C31.2491 247.91 33.3771 245.782 33.3771 243.157H44.2411ZM-3.96802 253.342V220.071V253.342ZM44.2411 220.071V243.157C44.2411 251.782 37.2491 258.774 28.6241 258.774V247.91C31.2491 247.91 33.3771 245.782 33.3771 243.157V220.071H44.2411Z" fill="#EEEEEE" mask="url(#path-1-inside-1_354_196)"/>
<mask id="path-3-inside-2_354_196" fill="white">
<path d="M36.0931 224.145H78.8703V233.651C78.8703 239.276 74.3103 243.836 68.6852 243.836H36.0931V224.145Z"/>
</mask>
<path d="M36.0931 224.145H78.8703H36.0931ZM84.3023 233.651C84.3023 242.276 77.3103 249.268 68.6852 249.268H36.0931V238.404H68.6852C71.3103 238.404 73.4383 236.276 73.4383 233.651H84.3023ZM36.0931 243.836V224.145V243.836ZM84.3023 224.145V233.651C84.3023 242.276 77.3103 249.268 68.6852 249.268V238.404C71.3103 238.404 73.4383 236.276 73.4383 233.651V224.145H84.3023Z" fill="#EEEEEE" mask="url(#path-3-inside-2_354_196)"/>
<path fill-rule="evenodd" clip-rule="evenodd" d="M53.4042 219.393C53.5929 219.393 53.7472 219.242 53.7472 219.053C53.7472 209.116 45.6913 201.06 35.7537 201.06C25.8161 201.06 17.7601 209.116 17.7601 219.053C17.7601 219.242 17.9145 219.393 18.1032 219.393H53.4042Z" fill="#EEEEEE"/>
<path fill-rule="evenodd" clip-rule="evenodd" d="M91.0317 223.183C91.1896 223.183 91.3187 223.057 91.3187 222.899C91.3187 214.586 84.5801 207.848 76.2675 207.848C67.955 207.848 61.2163 214.586 61.2163 222.899C61.2163 223.057 61.3454 223.183 61.5033 223.183H91.0317Z" fill="#EEEEEE"/>
<mask id="path-7-inside-3_354_196" fill="white">
<path d="M390 23.4414H340.36V61.4651C340.36 68.3882 345.972 74.0004 352.896 74.0004H390V23.4414Z"/>
</mask>
<path d="M390 23.4414H340.36H390ZM333.675 61.4651C333.675 72.0805 342.28 80.6859 352.896 80.6859H390V67.3149H352.896C349.665 67.3149 347.046 64.6959 347.046 61.4651H333.675ZM390 74.0004V23.4414V74.0004ZM333.675 23.4414V61.4651C333.675 72.0805 342.28 80.6859 352.896 80.6859V67.3149C349.665 67.3149 347.046 64.6959 347.046 61.4651V23.4414H333.675Z" fill="#EEEEEE" mask="url(#path-7-inside-3_354_196)"/>
<mask id="path-9-inside-4_354_196" fill="white">
<path d="M343.452 38.5254H290.804V50.225C290.804 57.1481 296.416 62.7603 303.339 62.7603H343.452V38.5254Z"/>
</mask>
<path d="M343.452 38.5254H290.804H343.452ZM284.118 50.225C284.118 60.8403 292.724 69.4458 303.339 69.4458H343.452V56.0748H303.339C300.108 56.0748 297.489 53.4558 297.489 50.225H284.118ZM343.452 62.7603V38.5254V62.7603ZM284.118 38.5254V50.225C284.118 60.8403 292.724 69.4458 303.339 69.4458V56.0748C300.108 56.0748 297.489 53.4558 297.489 50.225V38.5254H284.118Z" fill="#EEEEEE" mask="url(#path-9-inside-4_354_196)"/>
<path fill-rule="evenodd" clip-rule="evenodd" d="M322.146 22.5639C321.914 22.5639 321.724 22.3779 321.724 22.1457C321.724 9.91496 331.639 0 343.87 0C356.101 0 366.016 9.91496 366.016 22.1457C366.016 22.3779 365.826 22.5639 365.593 22.5639H322.146Z" fill="#EEEEEE"/>
<path fill-rule="evenodd" clip-rule="evenodd" d="M278.167 37.6053C277.993 37.6053 277.851 37.466 277.851 37.292C277.851 28.1189 285.287 20.6826 294.46 20.6826C303.633 20.6826 311.07 28.1189 311.07 37.292C311.07 37.466 310.927 37.6053 310.753 37.6053H278.167Z" fill="#EEEEEE"/>
<path fill-rule="evenodd" clip-rule="evenodd" d="M356.201 66.7344C356.09 66.7344 356 66.6458 356 66.5351C356 60.7167 360.717 56 366.535 56C372.354 56 377.07 60.7167 377.07 66.5351C377.07 66.6458 376.98 66.7344 376.869 66.7344H356.201Z" fill="#EEEEEE"/>
<circle cx="298.5" cy="282.5" r="29.5" fill="#EEEEEE"/>
<path fill-rule="evenodd" clip-rule="evenodd" d="M195 331C159.654 331 131 359.654 131 395V406C131 383.909 113.091 366 91 366H88C65.9086 366 48 383.909 48 406C48 383.909 30.0914 366 8 366H3C-19.0914 366 -37 383.909 -37 406V586H48H131H259H342H427V406C427 383.909 409.091 366 387 366H382C359.909 366 342 383.909 342 406C342 383.909 324.091 366 302 366H299C276.909 366 259 383.909 259 406V395C259 359.654 230.346 331 195 331Z" fill="url(#paint0_linear_354_196)"/>
<path fill-rule="evenodd" clip-rule="evenodd" d="M84 473C84 453.118 67.8822 437 48 437V586H84V473ZM306 473C306 453.118 322.118 437 342 437V586H306V473Z" fill="white"/>
<defs>
<linearGradient id="paint0_linear_354_196" x1="195" y1="331" x2="195" y2="586" gradientUnits="userSpaceOnUse">
<stop stop-color="#EEEEEE"/>
<stop offset="1" stop-color="#FEFEFE"/>
</linearGradient>
</defs>
</svg>
