<svg width="390" height="333" viewBox="0 0 390 333" fill="none" xmlns="http://www.w3.org/2000/svg">
<g clip-path="url(#clip0_74_383)">
<path fill-rule="evenodd" clip-rule="evenodd" d="M195 81C159.654 81 131 109.654 131 145V156C131 133.909 113.091 116 91 116H88C65.9086 116 48 133.909 48 156C48 133.909 30.0914 116 8 116H3C-19.0914 116 -37 133.909 -37 156V336H48H131H259H342H427V156C427 133.909 409.091 116 387 116H382C359.909 116 342 133.909 342 156C342 133.909 324.091 116 302 116H299C276.909 116 259 133.909 259 156V145C259 109.654 230.346 81 195 81Z" fill="url(#paint0_linear_74_383)"/>
<path fill-rule="evenodd" clip-rule="evenodd" d="M84 223C84 203.118 67.8822 187 48 187V336H84V223ZM306 223C306 203.118 322.118 187 342 187V336H306V223Z" fill="url(#paint1_linear_74_383)"/>
<circle cx="299.5" cy="29.5" r="29.5" fill="#F38989"/>
</g>
<defs>
<linearGradient id="paint0_linear_74_383" x1="195" y1="81" x2="195" y2="336" gradientUnits="userSpaceOnUse">
<stop stop-color="#429F90"/>
<stop offset="1" stop-color="#FEFEFE"/>
</linearGradient>
<linearGradient id="paint1_linear_74_383" x1="195" y1="187" x2="195" y2="336" gradientUnits="userSpaceOnUse">
<stop stop-color="#D3E6E8"/>
<stop offset="1" stop-color="white"/>
</linearGradient>
<clipPath id="clip0_74_383">
<rect width="390" height="333" fill="white"/>
</clipPath>
</defs>
</svg>
