<svg width="390" height="844" viewBox="0 0 390 844" fill="none" xmlns="http://www.w3.org/2000/svg">
<g clip-path="url(#clip0_76_397)">
<rect width="390" height="844" fill="white"/>
<path d="M119.959 159.828H125.311V198.448H119.959V159.828ZM133.477 175.828C132.189 175.828 131.031 176.048 130.001 176.49C129.008 176.931 128.162 177.556 127.463 178.366C126.764 179.175 126.231 180.131 125.863 181.234C125.495 182.338 125.311 183.533 125.311 184.821V198.448H119.959V184.931C119.959 182.834 120.272 180.903 120.897 179.138C121.523 177.336 122.405 175.791 123.546 174.503C124.723 173.179 126.139 172.149 127.794 171.414C129.486 170.678 131.38 170.31 133.477 170.31C135.573 170.31 137.394 170.678 138.939 171.414C140.52 172.149 141.863 173.179 142.966 174.503C144.07 175.791 144.953 177.336 145.615 179.138C146.277 180.903 146.736 182.834 146.994 184.931L148.649 198.448H143.242L141.532 184.821C141.385 183.533 141.109 182.338 140.704 181.234C140.336 180.131 139.822 179.193 139.159 178.421C138.534 177.611 137.743 176.986 136.787 176.545C135.868 176.067 134.764 175.828 133.477 175.828Z" fill="#349989"/>
<path d="M153.702 170.862H159.054V198.448H153.702V170.862ZM153.095 162.31C153.095 161.317 153.39 160.526 153.978 159.938C154.603 159.313 155.412 159 156.406 159C157.362 159 158.134 159.313 158.723 159.938C159.348 160.526 159.661 161.317 159.661 162.31C159.661 163.303 159.348 164.113 158.723 164.738C158.134 165.326 157.362 165.621 156.406 165.621C155.412 165.621 154.603 165.326 153.978 164.738C153.39 164.113 153.095 163.303 153.095 162.31Z" fill="#349989"/>
<path d="M176.362 181.952C178.826 181.952 180.665 181.566 181.879 180.793C183.129 180.021 183.902 178.568 184.196 176.434L184.858 170.862H190.21L189.548 176.324C189.254 178.789 188.702 180.683 187.893 182.007C187.12 183.294 185.998 184.177 184.527 184.655C185.888 185.097 186.992 186.034 187.837 187.469C188.683 188.903 189.254 190.743 189.548 192.986L190.21 198.448H184.858L184.196 192.876C183.939 190.706 183.185 189.234 181.934 188.462C180.683 187.69 178.826 187.303 176.362 187.303H170.624V198.448H165.272V159.828H170.624V181.952H176.362Z" fill="#349989"/>
<path d="M214.279 178.862C213.506 177.906 212.532 177.17 211.355 176.655C210.215 176.103 208.946 175.828 207.548 175.828C205.267 175.828 203.373 176.471 201.865 177.759C200.357 179.046 199.401 180.738 198.996 182.834L214.279 178.862ZM193.479 184.931C193.479 182.834 193.81 180.903 194.472 179.138C195.171 177.336 196.127 175.791 197.341 174.503C198.592 173.179 200.081 172.149 201.81 171.414C203.539 170.678 205.451 170.31 207.548 170.31C209.313 170.31 210.95 170.586 212.458 171.138C213.966 171.653 215.309 172.389 216.486 173.345C217.663 174.264 218.637 175.386 219.41 176.71C220.219 178.034 220.808 179.487 221.175 181.069V182.669L199.382 188.131C199.971 189.786 200.964 191.092 202.362 192.048C203.796 193.005 205.525 193.483 207.548 193.483C209.46 193.483 211.116 193.005 212.513 192.048C213.911 191.092 214.923 189.823 215.548 188.241H221.175C220.808 189.823 220.219 191.276 219.41 192.6C218.637 193.924 217.663 195.064 216.486 196.021C215.309 196.94 213.966 197.676 212.458 198.228C210.95 198.743 209.313 199 207.548 199C205.451 199 203.539 198.651 201.81 197.952C200.081 197.253 198.592 196.297 197.341 195.083C196.127 193.832 195.171 192.343 194.472 190.614C193.81 188.885 193.479 186.991 193.479 184.931Z" fill="#349989"/>
<path d="M239.863 175.828C237.031 175.828 234.75 176.655 233.022 178.31C231.33 179.929 230.484 182.099 230.484 184.821V198.448H225.132V184.931C225.132 182.834 225.463 180.903 226.125 179.138C226.824 177.336 227.78 175.791 228.994 174.503C230.245 173.179 231.734 172.149 233.463 171.414C235.192 170.678 237.104 170.31 239.201 170.31C240.782 170.31 242.254 170.531 243.615 170.972V176.379C243.026 176.195 242.401 176.067 241.739 175.993C241.113 175.883 240.488 175.828 239.863 175.828Z" fill="#349989"/>
<path d="M260.387 199C255.973 199 252.515 198.08 250.014 196.241C247.55 194.366 246.189 191.699 245.931 188.241H251.559C251.743 190.044 252.552 191.386 253.987 192.269C255.458 193.115 257.72 193.538 260.773 193.538C263.127 193.538 264.948 193.28 266.235 192.766C267.522 192.214 268.166 191.405 268.166 190.338C268.166 188.241 265.297 187.175 259.559 187.138C254.961 187.101 251.541 186.476 249.297 185.262C247.053 184.048 245.931 182.136 245.931 179.524C245.931 178.126 246.244 176.857 246.869 175.717C247.531 174.577 248.433 173.602 249.573 172.793C250.75 171.984 252.166 171.377 253.821 170.972C255.476 170.531 257.315 170.31 259.338 170.31C263.642 170.31 267.007 171.248 269.435 173.124C271.899 175 273.279 177.648 273.573 181.069H267.89C267.706 179.303 266.897 177.998 265.462 177.152C264.065 176.269 261.968 175.828 259.173 175.828C256.708 175.828 254.777 176.159 253.38 176.821C251.982 177.446 251.283 178.347 251.283 179.524C251.283 180.554 251.908 181.29 253.159 181.731C254.41 182.136 256.525 182.375 259.504 182.448C264.506 182.522 268.092 183.147 270.262 184.324C272.469 185.464 273.573 187.322 273.573 189.897C273.573 192.802 272.396 195.046 270.042 196.628C267.688 198.209 264.469 199 260.387 199Z" fill="#349989"/>
<circle cx="298.5" cy="389.5" r="29.5" fill="#F38989"/>
<path fill-rule="evenodd" clip-rule="evenodd" d="M195 438C159.654 438 131 466.654 131 502V513C131 490.909 113.091 473 91 473H88C65.9086 473 48 490.909 48 513C48 490.909 30.0914 473 8 473H3C-19.0914 473 -37 490.909 -37 513V693H48H131H259H342H427V513C427 490.909 409.091 473 387 473H382C359.909 473 342 490.909 342 513C342 490.909 324.091 473 302 473H299C276.909 473 259 490.909 259 513V502C259 466.654 230.346 438 195 438Z" fill="url(#paint0_linear_76_397)"/>
<path fill-rule="evenodd" clip-rule="evenodd" d="M84 580C84 560.118 67.8822 544 48 544V693H84V580ZM306 580C306 560.118 322.118 544 342 544V693H306V580Z" fill="url(#paint1_linear_76_397)"/>
</g>
<defs>
<linearGradient id="paint0_linear_76_397" x1="195" y1="438" x2="195" y2="693" gradientUnits="userSpaceOnUse">
<stop stop-color="#429F90"/>
<stop offset="1" stop-color="#FEFEFE"/>
</linearGradient>
<linearGradient id="paint1_linear_76_397" x1="195" y1="544" x2="195" y2="693" gradientUnits="userSpaceOnUse">
<stop stop-color="#D3E6E8"/>
<stop offset="1" stop-color="white"/>
</linearGradient>
<clipPath id="clip0_76_397">
<rect width="390" height="844" fill="white"/>
</clipPath>
</defs>
</svg>
