<svg width="59" height="63" viewBox="0 0 59 63" fill="none" xmlns="http://www.w3.org/2000/svg">
<rect width="59" height="63" rx="5" fill="#C8C8C8"/>
<path d="M10 27.2069H11.3239V36.8621H10V27.2069ZM13.3438 31.2069C13.0254 31.2069 12.7387 31.2621 12.484 31.3724C12.2383 31.4828 12.029 31.6391 11.8562 31.8414C11.6833 32.0437 11.5513 32.2828 11.4604 32.5586C11.3694 32.8345 11.3239 33.1333 11.3239 33.4552V36.8621H10V33.4828C10 32.9586 10.0773 32.4759 10.232 32.0345C10.3867 31.5839 10.6051 31.1977 10.8871 30.8759C11.1783 30.5448 11.5286 30.2874 11.938 30.1034C12.3566 29.9195 12.8252 29.8276 13.3438 29.8276C13.8625 29.8276 14.3128 29.9195 14.695 30.1034C15.0862 30.2874 15.4184 30.5448 15.6913 30.8759C15.9643 31.1977 16.1827 31.5839 16.3464 32.0345C16.5102 32.4759 16.6239 32.9586 16.6876 33.4828L17.0971 36.8621H15.7596L15.3365 33.4552C15.3001 33.1333 15.2318 32.8345 15.1317 32.5586C15.0407 32.2828 14.9134 32.0483 14.7496 31.8552C14.5949 31.6529 14.3993 31.4966 14.1627 31.3862C13.9352 31.2667 13.6623 31.2069 13.3438 31.2069Z" fill="white"/>
<path d="M18.3471 29.9655H19.6709V36.8621H18.3471V29.9655ZM18.1969 27.8276C18.1969 27.5793 18.2697 27.3816 18.4153 27.2345C18.57 27.0782 18.7702 27 19.0158 27C19.2524 27 19.4435 27.0782 19.5891 27.2345C19.7437 27.3816 19.8211 27.5793 19.8211 27.8276C19.8211 28.0759 19.7437 28.2782 19.5891 28.4345C19.4435 28.5816 19.2524 28.6552 19.0158 28.6552C18.7702 28.6552 18.57 28.5816 18.4153 28.4345C18.2697 28.2782 18.1969 28.0759 18.1969 27.8276Z" fill="white"/>
<path d="M23.9524 32.7379C24.5621 32.7379 25.017 32.6414 25.3173 32.4483C25.6266 32.2552 25.8177 31.892 25.8905 31.3586L26.0543 29.9655H27.3782L27.2144 31.331C27.1416 31.9471 27.0051 32.4207 26.8049 32.7517C26.6138 33.0736 26.3363 33.2943 25.9724 33.4138C26.309 33.5241 26.582 33.7586 26.7913 34.1172C27.0005 34.4759 27.1416 34.9356 27.2144 35.4966L27.3782 36.8621H26.0543L25.8905 35.469C25.8268 34.9264 25.6403 34.5586 25.3309 34.3655C25.0216 34.1724 24.5621 34.0759 23.9524 34.0759H22.533V36.8621H21.2091V27.2069H22.533V32.7379H23.9524Z" fill="white"/>
<path d="M33.3322 31.9655C33.1411 31.7264 32.9 31.5425 32.6088 31.4138C32.3268 31.2759 32.0129 31.2069 31.6671 31.2069C31.103 31.2069 30.6344 31.3678 30.2613 31.6897C29.8883 32.0115 29.6517 32.4345 29.5516 32.9586L33.3322 31.9655ZM28.1868 33.4828C28.1868 32.9586 28.2687 32.4759 28.4325 32.0345C28.6054 31.5839 28.8419 31.1977 29.1422 30.8759C29.4515 30.5448 29.82 30.2874 30.2477 30.1034C30.6753 29.9195 31.1485 29.8276 31.6671 29.8276C32.1039 29.8276 32.5088 29.8966 32.8818 30.0345C33.2549 30.1632 33.587 30.3471 33.8781 30.5862C34.1693 30.8161 34.4104 31.0966 34.6015 31.4276C34.8017 31.7586 34.9472 32.1218 35.0382 32.5172V32.9172L29.6472 34.2828C29.7928 34.6966 30.0384 35.023 30.3842 35.2621C30.739 35.5011 31.1667 35.6207 31.6671 35.6207C32.1402 35.6207 32.5497 35.5011 32.8955 35.2621C33.2412 35.023 33.4914 34.7057 33.6461 34.3103H35.0382C34.9472 34.7057 34.8017 35.069 34.6015 35.4C34.4104 35.731 34.1693 36.0161 33.8781 36.2552C33.587 36.4851 33.2549 36.669 32.8818 36.8069C32.5088 36.9356 32.1039 37 31.6671 37C31.1485 37 30.6753 36.9126 30.2477 36.7379C29.82 36.5632 29.4515 36.3241 29.1422 36.0207C28.8419 35.708 28.6054 35.3356 28.4325 34.9034C28.2687 34.4713 28.1868 33.9977 28.1868 33.4828Z" fill="white"/>
<path d="M39.661 31.2069C38.9604 31.2069 38.3963 31.4138 37.9687 31.8276C37.5501 32.2322 37.3408 32.7747 37.3408 33.4552V36.8621H36.017V33.4828C36.017 32.9586 36.0988 32.4759 36.2626 32.0345C36.4355 31.5839 36.6721 31.1977 36.9723 30.8759C37.2817 30.5448 37.6502 30.2874 38.0778 30.1034C38.5055 29.9195 38.9786 29.8276 39.4973 29.8276C39.8885 29.8276 40.2525 29.8828 40.5891 29.9931V31.3448C40.4435 31.2989 40.2889 31.2667 40.1251 31.2483C39.9704 31.2207 39.8157 31.2069 39.661 31.2069Z" fill="white"/>
<path d="M44.7381 37C43.6462 37 42.7909 36.7701 42.1722 36.3103C41.5626 35.8414 41.2259 35.1747 41.1622 34.3103H42.5544C42.5998 34.7609 42.8 35.0966 43.1549 35.3172C43.5188 35.5287 44.0784 35.6345 44.8336 35.6345C45.4159 35.6345 45.8663 35.5701 46.1848 35.4414C46.5032 35.3034 46.6625 35.1011 46.6625 34.8345C46.6625 34.3103 45.9528 34.0437 44.5333 34.0345C43.396 34.0253 42.5498 33.869 41.9948 33.5655C41.4397 33.2621 41.1622 32.7839 41.1622 32.131C41.1622 31.7816 41.2396 31.4644 41.3943 31.1793C41.558 30.8943 41.781 30.6506 42.063 30.4483C42.3542 30.246 42.7045 30.0943 43.1139 29.9931C43.5234 29.8828 43.9783 29.8276 44.4788 29.8276C45.5433 29.8276 46.3759 30.0621 46.9764 30.531C47.586 31 47.9272 31.6621 48 32.5172H46.5942C46.5487 32.0759 46.3486 31.7494 45.9937 31.5379C45.6479 31.3172 45.1293 31.2069 44.4378 31.2069C43.8282 31.2069 43.3505 31.2897 43.0047 31.4552C42.659 31.6115 42.4861 31.8368 42.4861 32.131C42.4861 32.3885 42.6408 32.5724 42.9502 32.6828C43.2595 32.7839 43.7827 32.8437 44.5197 32.8621C45.7571 32.8805 46.6443 33.0368 47.1811 33.331C47.727 33.6161 48 34.0805 48 34.7241C48 35.4506 47.7088 36.0115 47.1265 36.4069C46.5442 36.8023 45.748 37 44.7381 37Z" fill="white"/>
</svg>
