<svg width="44" height="44" viewBox="0 0 44 44" fill="none" xmlns="http://www.w3.org/2000/svg">
<path d="M20.7165 29.5187L20.7162 29.5184C18.1362 27.2235 16.015 25.3341 14.5358 23.559C13.0593 21.787 12.25 20.1604 12.25 18.3951C12.25 15.5069 14.5532 13.25 17.5 13.25C19.1662 13.25 20.7682 14.0121 21.8119 15.2049L22 15.42L22.1881 15.2049C23.2318 14.0121 24.8338 13.25 26.5 13.25C29.4468 13.25 31.75 15.5069 31.75 18.3951C31.75 20.1604 30.9407 21.787 29.4642 23.559C27.985 25.3341 25.8638 27.2235 23.2838 29.5184L23.2835 29.5187L22 30.6648L20.7165 29.5187Z" fill="white" stroke="#C8C8C8" stroke-width="0.5"/>
</svg>
